# xmcd
#
# Track frame offsets:
#	150
#	12337
#	22621
#	34890
#	49741
#	63830
#	77702
#	90994
#	100506
#	112097
#
# Disc length: 1659 seconds
#
# Revision: 0
# Processed by: cddbd v1.5.2PL0 Copyright (c) Steve Scherf et al.
# Submitted via: SynApp - FreeCDDB Version: 2.3
#
DISCID=6806790a
DTITLE=03 - Ronny  -  Dir Grossen Erfolge
DYEAR=0
DGENRE=Country
TTITLE0=Ronny - Kein Gold im Blue River
TTITLE1=Ronny - Eine kleine Träne
TTITLE2=04 - Ronny - Lass die Sonne wieder scheinen
TTITLE3=05 - Ronny - Doch dann kamst Du
TTITLE4=06 - Ronny - Nur noch einmal nach Hause
TTITLE5=07 - Ronny - Darling, Good Night
TTITLE6=08 - Ronny - Good Morning, My Sweet Adalita
TTITLE7=09 - Ronny - Oh Susanna
TTITLE8=10 - Ronny - Donna Eliza von Kingstontown
TTITLE9=01 - Ronny - Oh My Darling
EXTD=
EXTT0=
EXTT1=
EXTT2=
EXTT3=
EXTT4=
EXTT5=
EXTT6=
EXTT7=
EXTT8=
EXTT9=
PLAYORDER=
